<?xml version="1.0" encoding="UTF-8"?>
<svg width="65px" height="42px" viewBox="0 0 65 42" version="1.1" xmlns="http://www.w3.org/2000/svg" xmlns:xlink="http://www.w3.org/1999/xlink">
    <title>confort</title>
    <g id="Page-1" stroke="none" stroke-width="1" fill="none" fill-rule="evenodd">
        <g id="confort" transform="translate(0.044444, 0.632300)" fill-rule="nonzero">
            <g id="Group" opacity="0.8" transform="translate(0.000000, 3.693223)" fill="#F0F5EA">
                <g id="Path">
                    <path d="M12.3555556,3.77447728 C12.3555556,3.77447728 -15.4444444,36.9744773 12.3555556,36.9744773 C40.1555556,36.9744773 56.7555556,36.9744773 56.7555556,20.3744773 C56.6555556,3.77447728 20.2555556,-5.72552272 12.3555556,3.77447728"></path>
                </g>
            </g>
            <path d="M36.6555556,12.6677003 C36.3555556,12.8677003 36.4555556,13.2677003 36.6555556,13.3677003 C36.8555556,13.4677003 36.9555556,13.3677003 37.1555556,13.1677003 C37.2555556,13.0677003 37.2555556,12.8677003 37.1555556,12.7677003 C36.9555556,12.5677003 36.7555556,12.5677003 36.6555556,12.6677003 M18.1555556,12.7677003 C19.1555556,12.8677003 19.0555556,11.8677003 18.5555556,11.7677003 C17.6555556,11.5677003 17.3555556,12.5677003 18.1555556,12.7677003 M27.8555556,13.5677003 C28.4555556,13.7677003 28.7555556,12.9677003 28.2555556,12.6677003 C28.1555556,12.6677003 28.0555556,12.5677003 28.0555556,12.5677003 C27.9555556,12.5677003 27.9555556,12.5677003 27.8555556,12.5677003 C27.5555556,12.6677003 27.3555556,13.0677003 27.5555556,13.2677003 C27.5555556,13.2677003 27.6555556,13.3677003 27.6555556,13.3677003 C27.6555556,13.4677003 27.7555556,13.4677003 27.8555556,13.5677003 M42.3555556,19.3677003 C44.4555556,19.1677003 46.5555556,19.0677003 48.8555556,18.8677003 C47.8555556,18.3677003 47.1555556,17.8677003 46.3555556,17.4677003 C45.3555556,16.9677003 43.6555556,17.1677003 42.9555556,17.9677003 C42.6555556,18.3677003 42.1555556,18.6677003 42.3555556,19.3677003 M57.1555556,7.96770034 C54.2555556,5.96770034 48.7555556,6.56770034 45.9555556,9.96770034 C45.1555556,10.9677003 44.5555556,14.5677003 45.9555556,15.4677003 C46.1555556,15.5677003 46.3555556,15.7677003 46.4555556,15.8677003 C48.2555556,17.3677003 50.3555556,18.0677003 52.7555556,17.8677003 C54.1555556,17.7677003 55.3555556,17.0677003 56.1555556,15.8677003 C56.4555556,15.4677003 56.5555556,14.9677003 56.0555556,14.5677003 C55.7555556,14.3677003 55.5555556,14.0677003 55.4555556,13.7677003 C55.0555556,13.1677003 55.2555556,12.8677003 56.0555556,12.5677003 C56.3555556,13.5677003 57.9555556,14.6677003 59.5555556,14.3677003 C60.6555556,14.0677003 61.1555556,13.3677003 61.5555556,12.3677003 C61.9555556,11.5677003 61.7555556,10.8677003 61.0555556,10.2677003 C60.3555556,9.66770034 59.6555556,9.36770034 58.7555556,9.26770034 C57.8555556,9.16770034 57.0555556,9.36770034 56.3555556,9.86770034 C56.0555556,10.0677003 55.7555556,10.2677003 55.4555556,9.86770034 C55.2555556,9.56770034 55.2555556,9.16770034 55.5555556,8.86770034 C55.7555556,8.66770034 55.9555556,8.46770034 56.2555556,8.26770034 C56.4555556,8.26770034 56.7555556,8.16770034 57.1555556,7.96770034 M33.9555556,4.56770034 C33.2555556,4.76770034 32.6555556,4.96770034 31.9555556,5.06770034 C28.9555556,5.56770034 25.9555556,6.06770034 22.8555556,6.56770034 C21.6555556,6.76770034 20.3555556,6.76770034 19.0555556,6.66770034 C18.3555556,6.66770034 17.6555556,6.36770034 16.9555556,6.16770034 C16.4555556,6.06770034 15.9555556,5.66770034 15.4555556,6.16770034 C15.0555556,6.56770034 14.6555556,6.86770034 14.4555556,7.36770034 C13.9555556,8.46770034 13.4555556,9.66770034 13.4555556,10.8677003 C13.4555556,11.0677003 13.4555556,11.2677003 13.4555556,11.3677003 C14.5555556,11.3677003 15.6555556,11.3677003 16.7555556,11.2677003 C17.0555556,11.2677003 17.3555556,11.0677003 17.6555556,10.8677003 C17.7555556,10.8677003 17.8555556,10.7677003 17.8555556,10.7677003 C18.7555556,10.4677003 19.7555556,10.8677003 20.1555556,12.0677003 C20.1555556,12.1677003 23.1555556,12.0677003 24.6555556,12.1677003 C25.3555556,12.2677003 26.0555556,12.1677003 26.5555556,11.5677003 C27.8555556,10.5677003 29.1555556,11.7677003 29.6555556,12.4677003 C29.8555556,12.6677003 30.1555556,12.8677003 30.4555556,12.8677003 C31.8555556,12.8677003 33.2555556,12.8677003 34.6555556,12.8677003 C35.1555556,11.1677003 36.9555556,10.8677003 38.2555556,12.1677003 C38.4555556,12.2677003 39.5555556,12.5677003 39.8555556,12.5677003 C41.0555556,12.5677003 42.2555556,12.5677003 43.6555556,12.5677003 C43.7555556,12.1677003 43.7555556,11.6677003 43.8555556,11.2677003 C41.7555556,10.4677003 40.4555556,9.06770034 39.9555556,6.96770034 C39.5555556,5.26770034 38.6555556,3.86770034 37.4555556,2.66770034 C36.2555556,1.56770034 34.8555556,1.06770034 33.2555556,1.46770034 C30.2555556,2.06770034 27.4555556,3.06770034 24.5555556,4.16770034 C24.0555556,4.36770034 23.5555556,4.56770034 23.0555556,4.86770034 C23.3555556,4.96770034 23.5555556,5.06770034 23.7555556,4.96770034 C25.8555556,4.56770034 27.9555556,4.16770034 30.0555556,3.86770034 C31.0555556,3.66770034 32.1555556,3.66770034 33.1555556,3.66770034 C33.6555556,3.66770034 34.0555556,3.86770034 33.9555556,4.56770034 M38.4555556,13.8677003 C37.5555556,14.7677003 37.2555556,14.9677003 36.3555556,14.5677003 C35.0555556,14.0677003 33.6555556,14.1677003 32.3555556,14.0677003 C31.6555556,14.0677003 30.0555556,14.1677003 29.4555556,14.4677003 C27.9555556,15.2677003 27.5555556,14.9677003 26.3555556,13.8677003 C26.1555556,13.6677003 25.7555556,13.5677003 25.5555556,13.4677003 C24.0555556,13.2677003 22.9555556,13.3677003 21.4555556,13.2677003 C21.0555556,13.2677003 20.3555556,13.0677003 20.0555556,13.4677003 C19.0555556,14.5677003 17.8555556,14.4677003 17.0555556,13.1677003 C16.7555556,12.6677003 16.3555556,12.4677003 15.8555556,12.5677003 C15.0555556,12.6677003 14.1555556,12.8677003 13.3555556,12.9677003 C13.3555556,13.2677003 13.2555556,13.4677003 13.2555556,13.6677003 C13.3555556,15.9677003 13.8555556,18.1677003 15.0555556,20.1677003 C15.6555556,21.0677003 15.8555556,21.1677003 16.7555556,20.6677003 C18.3555556,19.9677003 20.0555556,19.6677003 21.8555556,19.5677003 C23.5555556,19.4677003 25.0555556,19.9677003 26.5555556,20.3677003 C27.5555556,20.5677003 28.3555556,21.0677003 29.1555556,21.5677003 C29.9555556,21.9677003 30.6555556,22.5677003 31.4555556,22.9677003 C32.6555556,23.4677003 33.8555556,23.9677003 35.1555556,24.2677003 C35.8555556,24.4677003 36.6555556,24.3677003 37.2555556,23.7677003 C38.3555556,22.7677003 39.3555556,21.7677003 40.3555556,20.7677003 C40.6555556,20.4677003 40.7555556,20.0677003 40.7555556,19.6677003 C40.8555556,17.9677003 41.7555556,16.9677003 43.1555556,16.2677003 C43.5555556,16.0677003 43.8555556,15.9677003 44.2555556,15.7677003 C43.9555556,14.0677003 43.8555556,14.0677003 42.3555556,14.0677003 C41.1555556,13.9677003 39.8555556,13.8677003 38.4555556,13.8677003 M12.1555556,34.9677003 C11.7555556,33.4677003 17.9555556,34.0677003 20.7555556,34.3677003 C22.5555556,34.5677003 24.4555556,34.3677003 26.3555556,34.2677003 C29.5555556,34.0677003 32.8555556,33.7677003 36.0555556,33.9677003 C37.7555556,34.0677003 39.5555556,34.0677003 41.3555556,34.1677003 C43.7555556,34.2677003 46.0555556,34.4677003 48.3555556,34.5677003 C50.7555556,34.6677003 53.1555556,34.7677003 55.5555556,34.7677003 C56.4555556,34.7677003 57.4555556,34.7677003 58.3555556,34.7677003 C59.4555556,34.7677003 60.4555556,34.5677003 61.4555556,34.0677003 C62.3555556,33.6677003 62.8555556,33.0677003 62.8555556,32.0677003 C62.8555556,30.5677003 62.8555556,28.9677003 62.8555556,27.4677003 C62.8555556,26.4677003 62.7555556,25.3677003 62.6555556,24.3677003 C62.6555556,23.9677003 62.5555556,23.4677003 62.4555556,23.0677003 C62.3555556,22.5677003 62.0555556,22.2677003 61.5555556,22.1677003 C60.2555556,21.8677003 59.0555556,21.5677003 57.7555556,21.3677003 C56.6555556,21.1677003 55.5555556,21.0677003 54.4555556,20.8677003 C52.6555556,20.4677003 50.8555556,20.2677003 49.0555556,20.3677003 C47.1555556,20.4677003 45.1555556,20.4677003 43.2555556,20.8677003 C42.5555556,20.9677003 41.9555556,21.2677003 41.3555556,21.7677003 C40.3555556,22.7677003 39.2555556,23.6677003 38.2555556,24.6677003 C36.9555556,25.9677003 35.3555556,25.9677003 33.8555556,25.4677003 C32.3555556,24.9677003 30.8555556,24.1677003 29.4555556,23.3677003 C25.4555556,20.9677003 21.4555556,20.2677003 17.0555556,22.2677003 C15.9555556,22.7677003 14.7555556,22.8677003 13.6555556,23.2677003 C12.2555556,23.7677003 10.8555556,23.4677003 9.45555556,23.6677003 C9.25555556,23.6677003 9.05555556,23.6677003 8.95555556,23.5677003 C8.75555556,23.4677003 8.65555556,23.1677003 8.65555556,23.0677003 C8.65555556,22.8677003 8.85555556,22.6677003 8.95555556,22.5677003 C9.35555556,22.3677003 9.65555556,22.3677003 9.95555556,22.3677003 C11.3555556,22.3677003 12.6555556,21.9677003 14.0555556,21.4677003 C13.5555556,19.6677003 12.5555556,18.0677003 12.4555556,16.1677003 C12.3555556,14.3677003 12.0555556,12.5677003 12.3555556,10.7677003 C12.7555556,8.96770034 13.1555556,7.16770034 14.2555556,5.46770034 C13.0555556,4.96770034 12.0555556,4.46770034 11.0555556,4.06770034 C10.5555556,3.86770034 9.95555556,3.56770034 9.45555556,3.26770034 C8.75555556,2.86770034 8.55555556,2.26770034 8.75555556,1.36770034 C8.85555556,1.36770034 9.05555556,1.36770034 9.15555556,1.46770034 C10.7555556,3.06770034 12.8555556,3.56770034 14.9555556,4.26770034 C15.9555556,4.56770034 16.9555556,4.76770034 18.0555556,4.96770034 C18.4555556,5.06770034 18.8555556,4.96770034 19.2555556,4.86770034 C20.9555556,4.26770034 22.7555556,3.56770034 24.4555556,2.86770034 C26.0555556,2.26770034 27.6555556,1.76770034 29.3555556,1.16770034 C30.3555556,0.867700335 31.2555556,0.567700335 32.2555556,0.267700335 C33.9555556,-0.332299665 35.4555556,0.167700335 37.0555556,0.867700335 C38.4555556,1.46770034 39.3555556,2.56770034 39.9555556,3.86770034 C40.4555556,4.96770034 40.9555556,6.16770034 41.3555556,7.26770034 C41.7555556,8.36770034 42.4555556,9.06770034 43.4555556,9.66770034 C44.1555556,10.0677003 44.3555556,10.0677003 44.8555556,9.36770034 C46.4555556,7.26770034 48.6555556,6.26770034 51.1555556,5.76770034 C52.6555556,5.36770034 54.2555556,5.66770034 55.6555556,6.06770034 C56.3555556,6.26770034 57.0555556,6.56770034 57.7555556,6.76770034 C58.2555556,6.96770034 58.4555556,7.16770034 58.7555556,7.66770034 C58.8555556,7.86770034 59.2555556,8.06770034 59.5555556,8.16770034 C60.5555556,8.46770034 61.4555556,8.96770034 62.2555556,9.66770034 C63.2555556,10.6677003 63.3555556,12.4677003 62.5555556,13.5677003 C62.2555556,13.9677003 61.9555556,14.2677003 61.6555556,14.5677003 C60.8555556,15.3677003 59.9555556,15.8677003 58.8555556,15.6677003 C58.3555556,15.5677003 57.8555556,15.6677003 57.6555556,16.2677003 C57.2555556,17.4677003 56.1555556,17.9677003 55.2555556,18.6677003 C54.9555556,18.8677003 54.7555556,19.0677003 54.4555556,19.4677003 C55.0555556,19.5677003 55.7555556,19.6677003 56.3555556,19.7677003 C57.2555556,19.9677003 58.1555556,20.0677003 58.9555556,20.1677003 C59.6555556,20.2677003 60.4555556,20.3677003 61.1555556,20.3677003 C62.4555556,20.3677003 63.2555556,20.7677003 63.6555556,21.9677003 C63.9555556,22.9677003 63.9555556,24.0677003 64.0555556,25.0677003 C64.1555556,26.2677003 64.2555556,27.3677003 64.2555556,28.5677003 C64.2555556,30.0677003 64.3555556,31.6677003 64.2555556,33.1677003 C64.2555556,34.3677003 63.1555556,35.3677003 61.8555556,35.6677003 C59.8555556,36.1677003 57.7555556,36.0677003 55.7555556,35.9677003 C55.5555556,35.9677003 55.3555556,35.8677003 55.1555556,35.8677003 C53.4555556,36.1677003 51.7555556,35.8677003 49.9555556,35.7677003 C47.9555556,35.6677003 45.9555556,35.5677003 43.9555556,35.4677003 C39.7555556,35.3677003 35.5555556,35.1677003 31.4555556,35.0677003 C31.0555556,35.0677003 30.5555556,35.1677003 30.1555556,35.1677003 C28.5555556,35.2677003 26.9555556,35.5677003 25.3555556,35.5677003 C23.2555556,35.5677003 21.1555556,35.3677003 19.0555556,35.2677003 C18.3555556,35.2677003 17.7555556,35.1677003 17.0555556,35.1677003 C16.1555556,35.1677003 14.3555556,35.3677003 12.4555556,35.1677003" id="Shape" stroke="#305157" stroke-width="0.25" fill="#305257"></path>
            <path d="M13.6555556,25.1677003 C13.6555556,24.5677003 13.7555556,23.8677003 13.7555556,23.2677003 C13.8555556,22.6677003 14.1555556,22.4677003 14.7555556,22.5677003 C15.2555556,22.5677003 15.4555556,22.8677003 15.4555556,23.3677003 C15.2555556,25.2677003 15.0555556,27.1677003 14.9555556,29.0677003 C14.8555556,30.5677003 15.0555556,32.1677003 15.1555556,33.6677003 C15.1555556,33.8677003 15.1555556,34.1677003 14.9555556,34.3677003 C14.7555556,34.4677003 14.3555556,34.5677003 14.1555556,34.4677003 C13.9555556,34.3677003 13.7555556,34.0677003 13.7555556,33.8677003 C13.5555556,32.8677003 13.5555556,27.0677003 13.6555556,25.1677003" id="Path" fill="#305257"></path>
            <path d="M18.5555556,24.1677003 C18.5555556,23.4677003 18.6555556,22.6677003 18.6555556,21.9677003 C18.7555556,21.3677003 18.9555556,21.0677003 19.6555556,21.1677003 C20.1555556,21.1677003 20.3555556,20.5677003 20.3555556,21.1677003 C20.1555556,23.3677003 19.9555556,26.4677003 19.8555556,28.5677003 C19.8555556,30.3677003 20.0555556,32.0677003 20.0555556,33.8677003 C20.0555556,34.1677003 20.0555556,34.4677003 19.8555556,34.5677003 C19.6555556,34.7677003 19.2555556,34.7677003 19.0555556,34.7677003 C18.8555556,34.6677003 18.6555556,34.3677003 18.6555556,34.0677003 C18.5555556,33.0677003 18.4555556,26.3677003 18.5555556,24.1677003" id="Path" fill="#305257"></path>
            <path d="M23.3555556,23.6677003 C23.3555556,22.8677003 23.4555556,22.1677003 23.4555556,21.3677003 C23.5555556,20.6677003 23.7555556,20.4677003 24.4555556,20.4677003 C24.9555556,20.4677003 25.1555556,19.8677003 25.1555556,20.4677003 C24.9555556,22.7677003 24.7555556,25.9677003 24.6555556,28.2677003 C24.6555556,30.0677003 24.8555556,31.9677003 24.8555556,33.7677003 C24.8555556,34.0677003 24.8555556,34.3677003 24.6555556,34.5677003 C24.4555556,34.7677003 24.0555556,34.7677003 23.8555556,34.7677003 C23.6555556,34.6677003 23.4555556,34.3677003 23.4555556,34.0677003 C23.4555556,32.9677003 23.3555556,26.0677003 23.3555556,23.6677003" id="Path" fill="#305257"></path>
            <path d="M28.3555556,25.1677003 C28.3555556,24.4677003 28.4555556,23.8677003 28.4555556,23.1677003 C28.5555556,22.5677003 28.7555556,22.3677003 29.4555556,22.4677003 C29.9555556,22.4677003 30.1555556,21.9677003 30.1555556,22.4677003 C29.9555556,24.4677003 29.7555556,27.2677003 29.6555556,29.1677003 C29.6555556,30.7677003 29.7555556,32.3677003 29.8555556,33.9677003 C29.8555556,34.1677003 29.8555556,34.4677003 29.6555556,34.6677003 C29.4555556,34.7677003 29.0555556,34.8677003 28.8555556,34.7677003 C28.6555556,34.6677003 28.4555556,34.3677003 28.4555556,34.1677003 C28.3555556,33.1677003 28.2555556,27.1677003 28.3555556,25.1677003" id="Path" fill="#305257"></path>
            <path d="M33.3555556,26.7677003 C33.3555556,26.1677003 33.4555556,25.6677003 33.5555556,25.0677003 C33.6555556,24.5677003 33.9555556,24.3677003 34.5555556,24.4677003 C35.0555556,24.4677003 35.3555556,23.9677003 35.2555556,24.4677003 C35.0555556,26.0677003 34.7555556,28.4677003 34.7555556,30.0677003 C34.6555556,31.3677003 34.8555556,32.7677003 34.9555556,34.0677003 C34.9555556,34.2677003 34.9555556,34.5677003 34.7555556,34.6677003 C34.5555556,34.7677003 34.1555556,34.8677003 33.9555556,34.7677003 C33.7555556,34.6677003 33.5555556,34.4677003 33.5555556,34.2677003 C33.2555556,33.4677003 33.2555556,28.4677003 33.3555556,26.7677003" id="Path" fill="#305257"></path>
            <path d="M38.1555556,25.3677003 C38.1555556,24.6677003 38.2555556,24.0677003 38.2555556,23.3677003 C38.3555556,22.7677003 38.6555556,22.5677003 39.2555556,22.6677003 C39.7555556,22.6677003 39.9555556,22.1677003 39.9555556,22.6677003 C39.7555556,24.5677003 39.5555556,27.3677003 39.4555556,29.2677003 C39.3555556,30.8677003 39.5555556,32.3677003 39.6555556,33.9677003 C39.6555556,34.1677003 39.6555556,34.4677003 39.4555556,34.6677003 C39.2555556,34.7677003 38.8555556,34.8677003 38.6555556,34.7677003 C38.4555556,34.6677003 38.2555556,34.3677003 38.2555556,34.1677003 C38.1555556,33.2677003 38.0555556,27.3677003 38.1555556,25.3677003" id="Path" fill="#305257"></path>
            <path d="M43.0555556,23.3677003 C43.0555556,22.5677003 43.1555556,21.7677003 43.1555556,20.9677003 C43.2555556,20.2677003 43.4555556,20.0677003 44.1555556,20.0677003 C44.6555556,20.0677003 44.8555556,19.4677003 44.8555556,20.0677003 C44.6555556,22.3677003 44.4555556,25.6677003 44.3555556,28.0677003 C44.3555556,29.9677003 44.5555556,31.8677003 44.5555556,33.6677003 C44.5555556,33.9677003 44.5555556,34.2677003 44.3555556,34.4677003 C44.1555556,34.6677003 43.7555556,34.7677003 43.5555556,34.6677003 C43.3555556,34.5677003 43.1555556,34.1677003 43.1555556,33.9677003 C43.0555556,32.8677003 42.9555556,25.7677003 43.0555556,23.3677003" id="Path" fill="#305257"></path>
            <path d="M47.9555556,23.5677003 C47.9555556,22.7677003 48.0555556,21.8677003 48.0555556,21.0677003 C48.1555556,20.3677003 48.3555556,20.0677003 49.0555556,20.1677003 C49.5555556,20.1677003 49.7555556,19.4677003 49.7555556,20.1677003 C49.5555556,22.5677003 49.3555556,26.0677003 49.2555556,28.4677003 C49.2555556,30.4677003 49.4555556,32.3677003 49.4555556,34.3677003 C49.4555556,34.6677003 49.4555556,35.0677003 49.2555556,35.1677003 C49.0555556,35.3677003 48.6555556,35.4677003 48.4555556,35.3677003 C48.2555556,35.2677003 48.0555556,34.8677003 48.0555556,34.6677003 C47.9555556,33.4677003 47.8555556,26.0677003 47.9555556,23.5677003" id="Path" fill="#305257"></path>
            <path d="M52.8555556,23.5677003 C52.8555556,22.7677003 52.9555556,21.8677003 52.9555556,21.0677003 C53.0555556,20.3677003 53.2555556,20.0677003 53.9555556,20.1677003 C54.4555556,20.1677003 54.6555556,19.4677003 54.6555556,20.1677003 C54.4555556,22.5677003 54.2555556,26.0677003 54.1555556,28.4677003 C54.1555556,30.4677003 54.3555556,32.3677003 54.3555556,34.3677003 C54.3555556,34.6677003 54.3555556,35.0677003 54.1555556,35.1677003 C53.9555556,35.3677003 53.5555556,35.4677003 53.3555556,35.3677003 C53.1555556,35.2677003 52.9555556,34.8677003 52.9555556,34.6677003 C52.8555556,33.4677003 52.7555556,26.0677003 52.8555556,23.5677003" id="Path" fill="#305257"></path>
            <path d="M57.7555556,23.7677003 C57.7555556,22.9677003 57.8555556,22.1677003 57.8555556,21.3677003 C57.9555556,20.6677003 58.1555556,20.4677003 58.8555556,20.4677003 C59.3555556,20.4677003 59.5555556,19.8677003 59.5555556,20.4677003 C59.3555556,22.7677003 59.1555556,26.0677003 59.0555556,28.4677003 C59.0555556,30.3677003 59.2555556,32.2677003 59.2555556,34.0677003 C59.2555556,34.3677003 59.2555556,34.6677003 59.0555556,34.8677003 C58.8555556,35.0677003 58.4555556,35.1677003 58.2555556,35.0677003 C58.0555556,34.9677003 57.8555556,34.5677003 57.8555556,34.3677003 C57.7555556,33.2677003 57.6555556,26.1677003 57.7555556,23.7677003" id="Path" fill="#305257"></path>
        </g>
    </g>
</svg>