<?xml version="1.0" encoding="UTF-8"?>
<svg width="32px" height="42px" viewBox="0 0 32 42" version="1.1" xmlns="http://www.w3.org/2000/svg" xmlns:xlink="http://www.w3.org/1999/xlink">
    <title>naturel</title>
    <g id="Page-1" stroke="none" stroke-width="1" fill="none" fill-rule="evenodd">
        <g id="naturel" transform="translate(0.774428, 0.047825)" fill-rule="nonzero">
            <g id="Groupe_232" opacity="0.8" transform="translate(0.000000, 1.822635)" fill="#EAF4E7">
                <g id="Groupe_229">
                    <path d="M22.5265717,26.9135398 C22.5265717,26.9135398 1.32657172,45.3135398 0.426571717,28.1135398 C-0.473428283,10.8135398 -0.973428283,0.613539796 10.0265717,0.0135397956 C21.1265717,-0.586460204 30.3265717,18.9135398 22.5265717,26.9135398" id="Tracé_159"></path>
                </g>
            </g>
            <g id="Groupe_233" transform="translate(4.267053, 0.000000)" fill="#305156">
                <path d="M14.4575184,7.75317487 C17.0575184,6.25317487 20.4575184,4.15317487 23.4575184,6.65317487 C22.3575184,11.8531749 18.6575184,12.9531749 14.7575184,13.2531749 C14.7575184,14.8531749 14.8575184,17.3531749 14.8575184,19.2531749 C15.5575184,18.9531749 16.3575184,18.6531749 17.0575184,18.2531749 C20.2575184,16.2531749 23.8575184,17.1531749 25.6575184,20.5531749 C27.7575184,24.5531749 26.7575184,28.3531749 24.1575184,31.5531749 C22.1575184,34.1531749 19.4575184,36.2531749 17.0575184,38.4531749 C16.1575184,39.3531749 15.0575184,40.0531749 14.0575184,40.8531749 C12.4575184,42.1531749 12.0575184,42.1531749 10.6575184,40.6531749 C8.55751837,38.5531749 6.45751837,36.3531749 4.45751837,34.2531749 C2.25751837,31.9531749 0.757518366,29.3531749 0.157518366,26.2531749 C-0.642481634,22.0531749 1.65751837,18.6531749 5.85751837,17.8531749 C7.85751837,17.4531749 9.95751837,17.6531749 11.8575184,18.5531749 C12.2575184,18.7531749 12.9575184,19.1531749 13.5575184,19.3531749 C13.5575184,17.3531749 13.4575184,15.3531749 13.4575184,13.3531749 C12.4575184,13.1531749 11.1575184,12.9531749 10.1575184,12.9531749 C6.75751837,12.6531749 4.15751837,11.0531749 2.05751837,8.55317487 C0.357518366,6.55317487 0.357518366,3.95317487 0.457518366,1.45317487 C0.457518366,1.15317487 1.25751837,0.653174871 1.75751837,0.453174871 C5.95751837,-0.746825129 9.45751837,0.453174871 12.1575184,3.85317487 C12.9575184,5.05317487 13.7575184,6.35317487 14.4575184,7.75317487 M14.0575184,22.9531749 C13.1575184,20.6531749 11.1575184,20.2531749 9.45751837,19.6531749 C6.85751837,18.8531749 4.75751837,19.6531749 2.85751837,21.3531749 C1.25751837,22.8531749 1.15751837,25.0531749 2.15751837,27.5531749 C3.05751837,29.7531749 4.65751837,31.4531749 6.25751837,33.0531749 C8.45751837,35.1531749 10.0575184,37.4531749 12.3575184,39.5531749 C14.3575184,38.0531749 17.0575184,36.5531749 18.7575184,34.8531749 C21.1575184,32.4531749 23.5575184,30.0531749 24.4575184,26.5531749 C25.1575184,23.8531749 24.2575184,21.4531749 21.7575184,19.9531749 C19.8575184,18.8531749 18.7575184,18.8531749 16.1575184,20.9531749 C15.1575184,21.4531749 14.8575184,21.4531749 14.0575184,22.9531749 M12.6575184,10.4531749 C12.3575184,9.45317487 11.4575184,9.65317487 10.8575184,9.55317487 C9.35751837,9.45317487 8.05751837,8.55317487 7.35751837,7.25317487 C7.15751837,6.85317487 7.35751837,6.25317487 7.45751837,5.75317487 C9.45751837,6.05317487 10.3575184,8.65317487 12.5575184,7.85317487 C10.8575184,3.45317487 4.85751837,0.653174871 2.05751837,3.25317487 C2.25751837,8.95317487 8.75751837,11.6531749 12.6575184,10.4531749 M14.6575184,11.4531749 C17.9575184,11.7531749 19.7575184,10.6531749 20.7575184,7.65317487 C18.3575184,7.25317487 15.3575184,9.05317487 14.6575184,11.4531749" id="Tracé_160"></path>
            </g>
        </g>
    </g>
</svg>