<svg id="Calque_1" data-name="Calque 1" xmlns="http://www.w3.org/2000/svg" xmlns:xlink="http://www.w3.org/1999/xlink" viewBox="0 0 46.02 52.15"><defs><style>.cls-1{fill:none;}.cls-2{clip-path:url(#clip-path);}.cls-3{fill:#eef4eb;}.cls-4{fill:#305157;}</style><clipPath id="clip-path" transform="translate(-1.79 -1.7)"><rect class="cls-1" x="1.55" y="9.78" width="46.85" height="41.1" transform="translate(-9.89 48.45) rotate(-77.99)"/></clipPath></defs><g id="Groupe_837" data-name="Groupe 837"><g class="cls-2"><g id="Groupe_788" data-name="Groupe 788"><g id="Groupe_787" data-name="Groupe 787"><path id="Tracé_1198" data-name="Tracé 1198" class="cls-3" d="M33.29,8.16c-3.67-.78-8.21-.31-13.57,1.87a9.46,9.46,0,0,0-4.12,3.22C9.94,21-8,47.37,8.78,50.94c19.72,4.2,31.4,6.68,35.62-13.19,3.06-14.39-.49-27.33-11.11-29.59" transform="translate(-1.79 -1.7)"/></g></g></g></g><g id="Groupe_836" data-name="Groupe 836"><path id="Tracé_1218" data-name="Tracé 1218" class="cls-4" d="M32.61,4.83c-.08-.12.32-.5.41-.71a2.07,2.07,0,0,1,1-1A10.26,10.26,0,0,1,36.45,2a5.34,5.34,0,0,1,2.17-.33,10.22,10.22,0,0,1,2.16.61,4.75,4.75,0,0,1,2.13,1.54A7,7,0,0,1,43.63,5a11.84,11.84,0,0,1,1.06,2.76A16.08,16.08,0,0,1,45,11.7c0,1,0,2.07,0,3.1,0,.81-.08,1.62-.06,2.43a9.2,9.2,0,0,0,1.3,4.6c.28.46.54.92.85,1.36a2.67,2.67,0,0,0,.61.55c.73.53-2.36,3-3,3.29a6.34,6.34,0,0,1-2.8.73,6.9,6.9,0,0,1-3.13-.86,3.28,3.28,0,0,1-1.62-1.7c-.17-.41-.44-.78-.59-1.19a14,14,0,0,1-.38-1.41c0-.12-.06-.24-.1-.37H36c-.16.25-.32.52-.46.79a7.94,7.94,0,0,1-1.42,1.84.35.35,0,0,0-.07.26,4.25,4.25,0,0,0,1.6,2,3,3,0,0,0,.63.28l1.81.71c.39.16.77.35,1.16.51.62.26,1.25.51,1.86.78.23.1.42.29.64.41.46.25.94.46,1.38.74a5.14,5.14,0,0,1,.75.65,11.37,11.37,0,0,1,1,.87,6.31,6.31,0,0,1,1.18,2,23.32,23.32,0,0,1,.79,4.7A13.87,13.87,0,0,1,47,40.21c.06,1.18.09,2.36.12,3.54,0,.78,0,1.56,0,2.34,0,.34,0,.68,0,1,0,.56-.08,1.13-.12,1.7a3.65,3.65,0,0,0-.07.46c0,.21,0,1.78-.77,1.93a4.41,4.41,0,0,1-.73,0c-1.5,0-3,.08-4.48.1-.68,0-1.36-.07-2-.07s-1.09.07-1.63.08-1.38,0-2.07,0-1.1.13-1.65.17q-1.32.09-2.64.15l-4.83.15c-.76,0-1.51,0-2.27,0l-5.78,0c-.86,0-1.72,0-2.57,0s-1.54.06-2.3,0a10.88,10.88,0,0,1-1.88-.25c-.52-.11-.17-3.86-.25-5.31-.1-1.9-.28-3.8-.37-5.7A8.16,8.16,0,0,1,10.85,39a18.89,18.89,0,0,1,.51-2.1,18.13,18.13,0,0,1,.89-2c.21-.42.47-.83.7-1.24a5,5,0,0,1,2-1.69l1.86-1.08c.17-.1.37-.15.55-.24.46-.22.91-.47,1.37-.67a8.68,8.68,0,0,1,.95-.3l1.17-.37c.86-.3,1.72-.59,2.57-.9a7,7,0,0,0,1.87-2.21.66.66,0,0,0-.24-.48,8.29,8.29,0,0,1-1.59-2.13,12.6,12.6,0,0,1-.74-1.78c-.21-.62-.2-.66-.84-.52a1.48,1.48,0,0,1-1.16-.17.8.8,0,0,1-.17-.15c-.16-.25-.28-.52-.45-.75A2,2,0,0,1,19.84,19c0-.75-.16-1.48-.11-2.24.14-2,.72-2.88,1-4.92.44-.73.34-1.1,1.14-2.76a5.82,5.82,0,0,1,.79-1,5.44,5.44,0,0,1,1.83-1.36c.67-.29,2.87-1.12,3.16-1.26a5.71,5.71,0,0,1,2.32-.57,2.89,2.89,0,0,0,1-.15A2.86,2.86,0,0,1,32,4.7,3.32,3.32,0,0,1,32.61,4.83Zm.81,44.6,1.18-.12c.55-.05,1.1-.11,1.66-.14s1.17,0,1.76,0c.24,0,.33-.11.38-.34.13-.65.28-1.3.41-2,.3-1.52.61-3,.88-4.56.2-1.16.4-2.32.49-3.5a1.61,1.61,0,0,0-.92-1.57,2.15,2.15,0,0,0-1.2-.17c-.57,0-1.15,0-1.73,0a18.87,18.87,0,0,1-3,.19c-.49-.06-1,0-1.49,0-.73,0-1.46-.11-2.2-.13s-1.48,0-2.22,0l-4.07-.2c-.86,0-1.73-.08-2.6-.08-.6,0-1.2.05-1.79.1a.83.83,0,0,0-.59.68c0,.34,0,.69,0,1,.08.94.17,1.88.29,2.82s.23,1.78.39,2.67.32,1.49.49,2.24c.12.54.25,1.08.38,1.62a8.16,8.16,0,0,1,.3,1.18c.05.32.16.43.47.42.72,0,1.45,0,2.17-.05,1.16,0,2.31,0,3.47,0s2.27-.07,3.4-.09,2.34,0,3.66,0Zm12.25-4.3c-.13-1.65-.23-3.22-.37-4.78-.09-.93-.26-1.86-.37-2.79a7.44,7.44,0,0,0-.8-2.81,6.92,6.92,0,0,0-.87-1.33A12.31,12.31,0,0,0,39.91,31a5.93,5.93,0,0,0-.68-.31c-.89-.35-1.77-.7-2.67-1a.33.33,0,0,0-.3.14,4.9,4.9,0,0,1-1.41,1.95,10.58,10.58,0,0,1-1.51,1.07,6.76,6.76,0,0,1-2.58.84,11.51,11.51,0,0,1-1.55.19,4.93,4.93,0,0,1-2.35-.15c-.83-.36-1.64-.78-2.46-1.18a.81.81,0,0,1-.24-.17c-.53-.58-1.05-1.15-1.55-1.73a.54.54,0,0,0-.66-.23c-.71.25-1.43.49-2.14.72-.23.06-.45.13-.67.21-.57.27-1.13.56-1.7.84-.16.08-.31.17-.46.26-.36.23-.73.46-1.07.72a4.24,4.24,0,0,0-1.05.88,7.94,7.94,0,0,0-.93,1.72,11,11,0,0,0-.95,3c-.07.51-.12,1-.14,1.56,0,.92.13,1.85.18,2.78.08,1.24.15,4.5.13,4.89-.08,2.13,1.45,1.56,2.15,1.58.37,0,.73,0,1.1,0l1.77,0c.25,0,.31-.1.24-.37-.25-.84-.57-1.65-.74-2.51-.23-1.18-.6-2.33-.85-3.5-.2-1-.33-1.93-.45-2.9-.09-.71-.12-1.42-.16-2.13A2.47,2.47,0,0,1,17,36c.19-.15.46-.24.59-.43.38-.53,1-.53,1.49-.63a13.74,13.74,0,0,1,2.22-.16c1.29,0,2.59,0,3.88.07.71,0,1.42.06,2.14.1l2.78.13,1.57.11c.39,0,.78,0,1.16,0s1,.1,1.49.09c1.19,0,2.38-.06,3.56-.1a7.13,7.13,0,0,1,2,.06,2.59,2.59,0,0,1,1.78,1.32A3.91,3.91,0,0,1,42,38.33a11.06,11.06,0,0,1-.4,3.33c-.23.81-.34,1.65-.5,2.48-.25,1.34-.48,2.68-.74,4-.2,1.06-.18,1,1.14,1l2.2.05a10.52,10.52,0,0,0,1.37-.05c.61-.09.6-.12.6-.76,0-1.12,0-2.23,0-3.27Zm-2.8-33.49a10,10,0,0,0,0-1.73,14.65,14.65,0,0,0-.28-1.61,9.13,9.13,0,0,0-.48-1.42,8.21,8.21,0,0,0-1.14-2,3.2,3.2,0,0,0-.76-.71A5,5,0,0,0,39,3.64a3.06,3.06,0,0,0-1.12-.18,4.6,4.6,0,0,0-1.3.37A15.84,15.84,0,0,0,35,4.6c-.14.08-.2.27-.3.42l.37.24a1.9,1.9,0,0,1,.39.23c.3.25.57.52.88.76a4.51,4.51,0,0,1,1.43,2.08c.27.69.35,1.45.59,2.15a5.61,5.61,0,0,1,.16,3.09,1.36,1.36,0,0,0,.15,1.13,9.75,9.75,0,0,1,0,2.75c0,.6-.06,1.2-.1,1.8a2.76,2.76,0,0,1-.48,1.6.56.56,0,0,0-.09.31,4.94,4.94,0,0,0,.41,2.05c.13.27.3.52.43.79a3.11,3.11,0,0,0,1.63,1.66A5,5,0,0,0,42.6,26a4.92,4.92,0,0,0,1.47-.29,12,12,0,0,0,1.52-.76.3.3,0,0,0,0-.27c-.27-.36-.55-.72-.84-1.07a8.75,8.75,0,0,1-1.58-3.5,14.2,14.2,0,0,1-.33-3.18c-.06-1.75,0-3.52,0-5.28Zm-7.68,7.9-.07-.06a2.92,2.92,0,0,0-.48.29,6,6,0,0,1-2.06,1.07A13.74,13.74,0,0,0,30.05,22a1.66,1.66,0,0,1-1.92-.2,1,1,0,0,1-.3-.38c-.18-.86-.15-1.58.84-2a8.91,8.91,0,0,1,1-.35c.61-.2.77-.14,1.14.39a.45.45,0,0,0,.6.2l0,0c.44-.21.9-.38,1.33-.61s.81-.53,1.22-.79A1.7,1.7,0,0,0,34.79,17a5.09,5.09,0,0,1,.42-1.8.51.51,0,0,0,0-.3,3.53,3.53,0,0,0-1.45-2.09,8.3,8.3,0,0,0-2.9-1.16,7.86,7.86,0,0,0-3.48,0A5.21,5.21,0,0,0,25,12.88a8.63,8.63,0,0,0-.71.77c-.17.2-.3.44-.47.65s-.26.5,0,.84c.63.31.79,2.57.47,3.56a.16.16,0,0,0,0,.1c.18.68.31,1.38.55,2a9,9,0,0,0,1.64,3,6.52,6.52,0,0,0,1.68,1.37,2.58,2.58,0,0,0,2.22-.05,10.51,10.51,0,0,0,1.29-.67A4.93,4.93,0,0,0,33.41,23,17.91,17.91,0,0,0,34.55,21c.24-.48.43-1,.64-1.48Zm-.43-12.2a4.17,4.17,0,0,0-1-.7,4.78,4.78,0,0,0-2.66-.42c-.7.14-1.41.26-2.1.45s-1.07.38-1.6.56a7.16,7.16,0,0,0-.8.19c-.45.22-.87.49-1.3.75a6.7,6.7,0,0,0-.83.56,7.78,7.78,0,0,0-1.67,2.15,22.07,22.07,0,0,0-1.08,2.18,5.36,5.36,0,0,0-.26,1s0,0,0,.06a.18.18,0,0,0,.23.1s0,0,.06,0l0,0c.05,0,.06-.14.11-.2s.58-.08.85-.15a9.74,9.74,0,0,1,.52-1.14,7.71,7.71,0,0,1,1.07-1.41,4.66,4.66,0,0,1,1.2-.75A10.23,10.23,0,0,1,27,9.92a9.24,9.24,0,0,1,3.47-.27,8.38,8.38,0,0,1,3.23.78,17.08,17.08,0,0,1,1.85,1,2.3,2.3,0,0,1,.94,1c0,.08.16.11.28.19l0-.26a1.1,1.1,0,0,0,0-.26,12.92,12.92,0,0,0-1.07-3.27,8.92,8.92,0,0,0-.95-1.46ZM27,27.08c-.18.21-.35.43-.54.63s-.56.56-.83.85-.52.62-.82.9a.21.21,0,0,0-.05.29,4.92,4.92,0,0,0,.5.61,2.74,2.74,0,0,0,.72.6c.46.24.93.43,1.4.64a12.86,12.86,0,0,0,3.45.22,7.91,7.91,0,0,0,2.58-1,4.94,4.94,0,0,0,1.19-1.63.34.34,0,0,0-.11-.47l0,0-.65-.44a5.05,5.05,0,0,1-1.3-1.5c-.31-.45-.25-.47-.8-.2s-.82.42-1.24.6a1.39,1.39,0,0,1-.67.17,9.27,9.27,0,0,1-2-.09,3.78,3.78,0,0,0-.82-.12Z" transform="translate(-1.79 -1.7)"/><path id="Tracé_1219" data-name="Tracé 1219" class="cls-4" d="M30.64,45.55c-.41.1-.83.19-1.24.31a1.41,1.41,0,0,1-1.21-.2,6.83,6.83,0,0,1-2.53-2.82A5.78,5.78,0,0,1,25.21,41c-.05-.55.4-.93.84-1.19a2.67,2.67,0,0,1,1.5-.26,4.61,4.61,0,0,1,2.79,1.22,5.8,5.8,0,0,1,1.19,1.38,8.34,8.34,0,0,1,.54,1.52c0,.06,0,.13,0,.19a1.32,1.32,0,0,1-.8,1.69,1.19,1.19,0,0,1-.59.07h-.06Zm-.8-1.35.15-.07a2,2,0,0,0-.24-.68,6,6,0,0,0-1.67-1.61,2.83,2.83,0,0,0-.5-.13,3.87,3.87,0,0,0,2.26,2.48Z" transform="translate(-1.79 -1.7)"/></g></svg>